<svg width="1439" height="265" viewBox="0 0 1439 265" fill="none" xmlns="http://www.w3.org/2000/svg">
<rect x="5" y="5" width="246" height="255" stroke="#FFB32F" stroke-width="10"/>
<path d="M311.062 201.109H397.969L392.062 235H263.953L299.531 30.25H340.734L311.062 201.109ZM539.859 192.812H468.422L447.328 235H401.906L511.312 30.25H549.422L588.375 235H546.328L539.859 192.812ZM485.297 158.641H534.656L523.125 82.4219L485.297 158.641ZM793.266 30.25L770.203 165.25C767.016 187.844 757.641 205.703 742.078 218.828C726.516 231.953 707.203 238.328 684.141 237.953C669.703 237.672 657.141 234.531 646.453 228.531C635.859 222.438 628.031 213.906 622.969 202.938C617.906 191.875 616.172 179.359 617.766 165.391L640.688 30.25H681.891L658.969 165.531C658.312 170.781 658.266 175.703 658.828 180.297C660.703 195.484 669.75 203.359 685.969 203.922C697.594 204.297 707.109 201.109 714.516 194.359C721.922 187.609 726.703 177.953 728.859 165.391L751.922 30.25H793.266ZM791.859 235L827.438 30.25L886.219 30.3906C900 30.6719 912.375 33.8125 923.344 39.8125C934.406 45.7188 943.359 54.25 950.203 65.4062C957.047 76.5625 961.172 89.125 962.578 103.094C963.328 111.25 963.234 119.594 962.297 128.125L961.312 135.578C957.188 165.578 945.375 189.672 925.875 207.859C906.469 225.953 882.891 235 855.141 235H791.859ZM862.734 64.4219L838.969 201.109L856.125 201.25C875.062 201.25 890.25 194.312 901.688 180.438C913.219 166.562 919.828 145.609 921.516 117.578L921.797 113.078C922.078 97.6094 919.125 85.75 912.938 77.5C906.75 69.25 897.516 64.9375 885.234 64.5625L862.734 64.4219ZM974.953 235L1010.53 30.25L1069.31 30.3906C1083.09 30.6719 1095.47 33.8125 1106.44 39.8125C1117.5 45.7188 1126.45 54.25 1133.3 65.4062C1140.14 76.5625 1144.27 89.125 1145.67 103.094C1146.42 111.25 1146.33 119.594 1145.39 128.125L1144.41 135.578C1140.28 165.578 1128.47 189.672 1108.97 207.859C1089.56 225.953 1065.98 235 1038.23 235H974.953ZM1045.83 64.4219L1022.06 201.109L1039.22 201.25C1058.16 201.25 1073.34 194.312 1084.78 180.438C1096.31 166.562 1102.92 145.609 1104.61 117.578L1104.89 113.078C1105.17 97.6094 1102.22 85.75 1096.03 77.5C1089.84 69.25 1080.61 64.9375 1068.33 64.5625L1045.83 64.4219ZM1201.92 235H1160.72L1196.16 30.25H1237.36L1201.92 235ZM1402.88 235H1362.94L1305.98 98.4531L1282.22 235H1241.02L1276.59 30.25H1316.39L1373.48 167.078L1397.25 30.25H1438.31L1402.88 235Z" fill="#FFB32F"/>
<path d="M167.328 192.812H95.8906L74.7969 235H29.375L138.781 30.25H176.891L215.844 235H173.797L167.328 192.812ZM112.766 158.641H162.125L150.594 82.4219L112.766 158.641Z" fill="#FFB32F"/>
</svg>
